<?xml version="1.0" encoding="iso-8859-1"?>
<!-- Generator: Adobe Illustrator 19.0.0, SVG Export Plug-In . SVG Version: 6.00 Build 0)  -->
<svg version="1.1" id="Capa_1" xmlns="http://www.w3.org/2000/svg" xmlns:xlink="http://www.w3.org/1999/xlink" x="0px" y="0px"
	 viewBox="0 0 480.011 480.011" style="enable-background:new 0 0 480.011 480.011;" xml:space="preserve">
<g>
	<path style="fill:#CF9E76;" d="M456.002,48.002L456.002,48.002c-8.837,0-16-7.163-16-16l0,0c0-8.837,7.163-16,16-16l0,0
		c8.837,0,16,7.163,16,16l0,0C472.002,40.838,464.838,48.002,456.002,48.002z"/>
	<path style="fill:#CF9E76;" d="M456.002,52.002c-11.046,0-20-8.954-20-20s8.954-20,20-20s20,8.954,20,20
		S467.047,52.002,456.002,52.002z M456.002,20.002c-6.627,0-12,5.373-12,12s5.373,12,12,12s12-5.373,12-12
		S462.629,20.002,456.002,20.002z"/>
</g>
<path style="fill:#1A1A1A;" d="M288.002,464.002L288.002,464.002c-13.255,0-24-10.745-24-24l0,0c0-13.255,10.745-24,24-24l0,0
	c13.255,0,24,10.745,24,24l0,0C312.002,453.256,301.256,464.002,288.002,464.002z"/>
<path style="fill:#333333;" d="M288.002,468.002c-15.464,0-28-12.536-28-28s12.536-28,28-28s28,12.536,28,28l0,0
	C316.002,455.466,303.466,468.002,288.002,468.002z M288.002,420.002c-11.046,0-20,8.954-20,20s8.954,20,20,20s20-8.954,20-20
	S299.047,420.002,288.002,420.002z"/>
<path style="fill:#1A1A1A;" d="M88.002,464.002L88.002,464.002c-13.255,0-24-10.745-24-24l0,0c0-13.255,10.745-24,24-24l0,0
	c13.255,0,24,10.745,24,24l0,0C112.002,453.256,101.256,464.002,88.002,464.002z"/>
<path style="fill:#333333;" d="M88.002,468.002c-15.464,0-28-12.536-28-28s12.536-28,28-28s28,12.536,28,28l0,0
	C116.002,455.466,103.466,468.002,88.002,468.002z M88.002,420.002c-11.046,0-20,8.954-20,20s8.954,20,20,20s20-8.954,20-20
	S99.047,420.002,88.002,420.002z"/>
<path d="M456.002,8.002c-10.134,0.042-19.15,6.445-22.528,16h-33.472c-3.63-0.001-6.807,2.442-7.736,5.952l-24.264,91.648v-1.6h-360
	C3.583,120.001,0.001,123.582,0,128c0,0.711,0.095,1.419,0.282,2.106l48,176c0.949,3.482,4.111,5.897,7.72,5.896h266.016
	l32.272,109.736c1.25,4.238-1.171,8.687-5.409,9.937c-0.735,0.217-1.497,0.327-2.263,0.327h-27.752
	c-4.338-17.046-21.674-27.347-38.719-23.009c-11.304,2.877-20.131,11.704-23.009,23.009H118.866
	c-4.418-17.112-21.872-27.402-38.984-22.984S52.48,430.89,56.898,448.002c4.418,17.112,21.872,27.402,38.984,22.984
	c11.272-2.91,20.074-11.712,22.984-22.984h138.272c4.338,17.046,21.674,27.347,38.719,23.009
	c11.304-2.877,20.131-11.704,23.009-23.009h27.752c13.255,0,24-10.745,24-24c0-2.294-0.329-4.576-0.976-6.776l-33.336-113.328
	l69.856-263.896h27.312c4.44,12.465,18.145,18.971,30.611,14.531s18.971-18.145,14.531-30.611
	C475.21,14.361,466.15,7.983,456.002,8.002z M88.002,456.002c-8.837,0-16-7.163-16-16s7.163-16,16-16s16,7.163,16,16
	S96.838,456.002,88.002,456.002z M288.002,456.002c-8.837,0-16-7.163-16-16s7.163-16,16-16s16,7.163,16,16
	S296.838,456.002,288.002,456.002z M33.754,192.002h30.248v48h-17.16L33.754,192.002z M80.002,192.002h32v48h-32V192.002z
	 M176.002,192.002h32v48h-32V192.002z M160.002,240.002h-32v-48h32V240.002z M224.002,192.002h32v48h-32V192.002z M224.002,176.002
	v-40h32v40H224.002z M208.002,176.002h-32v-40h32V176.002z M160.002,176.002h-32v-40h32V176.002z M112.002,176.002h-32v-40h32
	V176.002z M112.002,256.002v40h-32v-40H112.002z M128.002,256.002h32v40h-32V256.002z M176.002,256.002h32v40h-32V256.002z
	 M224.002,256.002h32v40h-32V256.002z M272.002,256.002h32v40h-32V256.002z M320.002,256.002h12.432l-10.592,40h-1.84V256.002z
	 M320.002,240.002v-48h29.376l-13.376,50.52v-2.52H320.002z M304.002,240.002h-32v-48h32V240.002z M272.002,176.002v-40h32v40
	H272.002z M64.002,136.002v40H29.386l-10.904-40H64.002z M51.202,256.002h12.8v40h-1.888L51.202,256.002z M353.602,176.002h-33.6
	v-40h44.192L353.602,176.002z M456.002,40.002c-4.418,0-8-3.582-8-8s3.582-8,8-8s8,3.582,8,8S460.42,40.002,456.002,40.002z"/>
<g>
</g>
<g>
</g>
<g>
</g>
<g>
</g>
<g>
</g>
<g>
</g>
<g>
</g>
<g>
</g>
<g>
</g>
<g>
</g>
<g>
</g>
<g>
</g>
<g>
</g>
<g>
</g>
<g>
</g>
</svg>
